<svg xmlns="http://www.w3.org/2000/svg" viewBox="0 0 1098 837" fill="none" aria-label="Keystone VS Code activity bar icon">
  <path d="M 74.0 762.0 L 69.0 763.0 L 66.0 764.0 L 61.0 766.0 L 59.0 767.0 L 57.0 768.0 L 54.0 770.0 L 51.0 772.0 L 43.0 780.0 L 41.0 783.0 L 39.0 786.0 L 38.0 788.0 L 37.0 790.0 L 34.0 799.0 L 33.0 806.0 L 33.0 810.0 L 35.0 814.0 L 38.0 816.0 L 44.0 816.0 L 46.0 815.0 L 47.0 814.0 L 48.0 812.0 L 49.0 810.0 L 49.0 803.0 L 50.0 800.0 L 51.0 797.0 L 52.0 795.0 L 54.0 792.0 L 57.0 789.0 L 57.0 788.0 L 59.0 786.0 L 60.0 786.0 L 63.0 783.0 L 66.0 781.0 L 68.0 780.0 L 71.0 779.0 L 74.0 778.0 L 78.0 777.0 L 119.0 777.0 L 123.0 778.0 L 126.0 779.0 L 129.0 780.0 L 131.0 781.0 L 133.0 782.0 L 137.0 785.0 L 141.0 789.0 L 144.0 793.0 L 147.0 799.0 L 148.0 803.0 L 148.0 810.0 L 149.0 813.0 L 151.0 815.0 L 153.0 816.0 L 158.0 816.0 L 160.0 815.0 L 163.0 812.0 L 163.0 800.0 L 162.0 796.0 L 161.0 793.0 L 160.0 790.0 L 159.0 788.0 L 158.0 786.0 L 156.0 783.0 L 153.0 779.0 L 147.0 773.0 L 143.0 770.0 L 140.0 768.0 L 138.0 767.0 L 136.0 766.0 L 131.0 764.0 L 128.0 763.0 L 123.0 762.0 Z M 98.0 674.0 L 91.0 675.0 L 87.0 676.0 L 84.0 677.0 L 82.0 678.0 L 80.0 679.0 L 77.0 681.0 L 74.0 683.0 L 69.0 688.0 L 66.0 692.0 L 62.0 700.0 L 61.0 703.0 L 60.0 707.0 L 60.0 721.0 L 61.0 725.0 L 62.0 728.0 L 66.0 736.0 L 69.0 740.0 L 73.0 744.0 L 77.0 747.0 L 85.0 751.0 L 88.0 752.0 L 92.0 753.0 L 106.0 753.0 L 110.0 752.0 L 113.0 751.0 L 121.0 747.0 L 127.0 742.0 L 128.0 741.0 L 131.0 737.0 L 133.0 734.0 L 134.0 732.0 L 135.0 730.0 L 137.0 725.0 L 138.0 721.0 L 138.0 708.0 L 137.0 704.0 L 136.0 701.0 L 135.0 698.0 L 134.0 696.0 L 133.0 694.0 L 131.0 691.0 L 121.0 681.0 L 117.0 679.0 L 111.0 676.0 L 107.0 675.0 L 101.0 674.0 Z M 96.0 690.0 L 102.0 690.0 L 106.0 691.0 L 112.0 694.0 L 119.0 701.0 L 122.0 707.0 L 123.0 711.0 L 123.0 717.0 L 122.0 721.0 L 119.0 727.0 L 112.0 734.0 L 109.0 736.0 L 106.0 737.0 L 103.0 738.0 L 94.0 738.0 L 91.0 737.0 L 89.0 736.0 L 87.0 735.0 L 84.0 733.0 L 81.0 730.0 L 78.0 726.0 L 77.0 724.0 L 76.0 722.0 L 75.0 719.0 L 75.0 710.0 L 76.0 706.0 L 77.0 704.0 L 78.0 702.0 L 87.0 693.0 L 89.0 692.0 L 92.0 691.0 Z M 920.0 671.0 L 917.0 672.0 L 915.0 673.0 L 913.0 674.0 L 907.0 680.0 L 906.0 682.0 L 905.0 685.0 L 904.0 690.0 L 904.0 784.0 L 905.0 788.0 L 906.0 791.0 L 907.0 793.0 L 910.0 797.0 L 914.0 800.0 L 916.0 801.0 L 919.0 802.0 L 927.0 803.0 L 1003.0 802.0 L 1005.0 803.0 L 1012.0 802.0 L 1018.0 799.0 L 1022.0 795.0 L 1023.0 793.0 L 1024.0 791.0 L 1025.0 788.0 L 1026.0 784.0 L 1026.0 689.0 L 1025.0 684.0 L 1022.0 678.0 L 1018.0 674.0 L 1016.0 673.0 L 1014.0 672.0 L 1011.0 671.0 Z M 924.0 686.0 L 1006.0 686.0 L 1008.0 687.0 L 1010.0 689.0 L 1011.0 691.0 L 1011.0 782.0 L 1010.0 784.0 L 1007.0 787.0 L 923.0 787.0 L 920.0 784.0 L 919.0 782.0 L 919.0 692.0 L 920.0 689.0 L 922.0 687.0 Z M 951.0 637.0 L 949.0 638.0 L 947.0 639.0 L 945.0 641.0 L 944.0 641.0 L 943.0 642.0 L 943.0 643.0 L 941.0 645.0 L 940.0 647.0 L 939.0 649.0 L 938.0 653.0 L 938.0 656.0 L 953.0 656.0 L 956.0 653.0 L 958.0 652.0 L 1041.0 652.0 L 1043.0 653.0 L 1045.0 655.0 L 1046.0 657.0 L 1046.0 744.0 L 1041.0 748.0 L 1042.0 763.0 L 1045.0 763.0 L 1048.0 762.0 L 1051.0 761.0 L 1054.0 759.0 L 1057.0 756.0 L 1060.0 750.0 L 1061.0 747.0 L 1061.0 653.0 L 1060.0 650.0 L 1059.0 647.0 L 1058.0 645.0 L 1053.0 640.0 L 1047.0 637.0 Z M 433.0 558.0 L 432.0 559.0 L 429.0 559.0 L 426.0 560.0 L 421.0 562.0 L 415.0 565.0 L 410.0 568.0 L 406.0 571.0 L 393.0 584.0 L 387.0 593.0 L 385.0 597.0 L 382.0 603.0 L 380.0 608.0 L 378.0 613.0 L 374.0 624.0 L 360.0 665.0 L 348.0 697.0 L 346.0 702.0 L 342.0 710.0 L 340.0 713.0 L 338.0 716.0 L 328.0 726.0 L 324.0 729.0 L 321.0 731.0 L 319.0 732.0 L 317.0 733.0 L 308.0 736.0 L 304.0 737.0 L 207.0 737.0 L 203.0 739.0 L 201.0 742.0 L 201.0 748.0 L 202.0 750.0 L 204.0 752.0 L 206.0 753.0 L 304.0 753.0 L 310.0 752.0 L 314.0 751.0 L 317.0 750.0 L 320.0 749.0 L 325.0 747.0 L 327.0 746.0 L 329.0 745.0 L 334.0 742.0 L 337.0 740.0 L 341.0 737.0 L 349.0 729.0 L 352.0 725.0 L 354.0 722.0 L 357.0 717.0 L 358.0 715.0 L 359.0 713.0 L 361.0 708.0 L 363.0 703.0 L 370.0 684.0 L 376.0 665.0 L 380.0 657.0 L 382.0 649.0 L 386.0 641.0 L 391.0 625.0 L 394.0 617.0 L 396.0 612.0 L 400.0 604.0 L 403.0 599.0 L 405.0 596.0 L 409.0 591.0 L 414.0 586.0 L 419.0 582.0 L 422.0 580.0 L 428.0 577.0 L 433.0 575.0 L 436.0 575.0 L 439.0 574.0 L 441.0 573.0 L 440.0 570.0 L 437.0 565.0 L 436.0 561.0 L 435.0 558.0 Z M 668.0 558.0 L 668.0 560.0 L 663.0 573.0 L 668.0 573.0 L 672.0 574.0 L 675.0 575.0 L 678.0 576.0 L 684.0 579.0 L 687.0 581.0 L 690.0 583.0 L 701.0 594.0 L 703.0 597.0 L 705.0 600.0 L 709.0 608.0 L 715.0 623.0 L 720.0 638.0 L 731.0 672.0 L 734.0 680.0 L 738.0 688.0 L 744.0 697.0 L 755.0 708.0 L 758.0 710.0 L 761.0 712.0 L 769.0 716.0 L 778.0 719.0 L 782.0 720.0 L 788.0 721.0 L 856.0 723.0 L 843.0 736.0 L 842.0 738.0 L 842.0 744.0 L 843.0 746.0 L 844.0 747.0 L 850.0 748.0 L 852.0 748.0 L 854.0 747.0 L 863.0 737.0 L 867.0 733.0 L 868.0 733.0 L 871.0 730.0 L 877.0 724.0 L 879.0 721.0 L 880.0 721.0 L 882.0 719.0 L 883.0 717.0 L 884.0 715.0 L 884.0 712.0 L 883.0 709.0 L 853.0 679.0 L 851.0 678.0 L 847.0 678.0 L 845.0 679.0 L 843.0 681.0 L 842.0 683.0 L 842.0 688.0 L 843.0 690.0 L 855.0 705.0 L 788.0 705.0 L 784.0 704.0 L 780.0 703.0 L 775.0 701.0 L 773.0 700.0 L 771.0 699.0 L 768.0 697.0 L 764.0 694.0 L 758.0 688.0 L 755.0 684.0 L 752.0 679.0 L 749.0 673.0 L 747.0 668.0 L 740.0 645.0 L 733.0 628.0 L 732.0 622.0 L 728.0 611.0 L 725.0 603.0 L 719.0 591.0 L 717.0 588.0 L 715.0 585.0 L 712.0 581.0 L 704.0 573.0 L 699.0 569.0 L 696.0 567.0 L 689.0 563.0 L 684.0 561.0 L 675.0 558.0 L 670.0 557.0 Z M 66.0 556.0 L 64.0 557.0 L 62.0 559.0 L 61.0 561.0 L 61.0 566.0 L 62.0 568.0 L 64.0 570.0 L 66.0 571.0 L 108.0 571.0 L 112.0 567.0 L 113.0 564.0 L 113.0 562.0 L 111.0 558.0 L 108.0 556.0 Z M 68.0 522.0 L 65.0 523.0 L 61.0 527.0 L 61.0 533.0 L 62.0 535.0 L 64.0 537.0 L 67.0 538.0 L 115.0 538.0 L 117.0 537.0 L 119.0 536.0 L 120.0 535.0 L 121.0 533.0 L 121.0 527.0 L 117.0 523.0 L 114.0 522.0 Z M 382.0 453.0 L 377.0 454.0 L 368.0 457.0 L 364.0 459.0 L 358.0 462.0 L 355.0 464.0 L 349.0 469.0 L 347.0 471.0 L 341.0 478.0 L 339.0 481.0 L 336.0 486.0 L 329.0 501.0 L 327.0 504.0 L 324.0 508.0 L 317.0 515.0 L 313.0 518.0 L 305.0 522.0 L 302.0 523.0 L 299.0 524.0 L 294.0 525.0 L 201.0 525.0 L 199.0 526.0 L 196.0 529.0 L 195.0 531.0 L 195.0 535.0 L 196.0 537.0 L 199.0 540.0 L 201.0 541.0 L 296.0 541.0 L 301.0 540.0 L 306.0 539.0 L 309.0 538.0 L 314.0 536.0 L 316.0 535.0 L 318.0 534.0 L 323.0 531.0 L 327.0 528.0 L 338.0 517.0 L 341.0 513.0 L 344.0 508.0 L 346.0 504.0 L 348.0 498.0 L 351.0 493.0 L 353.0 490.0 L 355.0 487.0 L 364.0 478.0 L 367.0 476.0 L 375.0 472.0 L 378.0 471.0 L 381.0 470.0 L 385.0 469.0 L 390.0 468.0 L 394.0 468.0 L 394.0 465.0 L 389.0 456.0 L 388.0 453.0 Z M 994.0 452.0 L 991.0 453.0 L 988.0 456.0 L 987.0 458.0 L 987.0 462.0 L 989.0 466.0 L 991.0 467.0 L 993.0 468.0 L 1030.0 468.0 L 1033.0 467.0 L 1036.0 464.0 L 1036.0 462.0 L 1036.0 459.0 L 1036.0 457.0 L 1035.0 455.0 L 1034.0 454.0 L 1032.0 453.0 L 1030.0 452.0 Z M 46.0 439.0 L 43.0 440.0 L 37.0 443.0 L 30.0 450.0 L 28.0 453.0 L 27.0 456.0 L 26.0 460.0 L 26.0 589.0 L 27.0 592.0 L 28.0 594.0 L 29.0 596.0 L 31.0 599.0 L 36.0 604.0 L 42.0 607.0 L 45.0 608.0 L 83.0 609.0 L 88.0 608.0 L 90.0 609.0 L 138.0 608.0 L 141.0 607.0 L 143.0 606.0 L 145.0 605.0 L 149.0 602.0 L 150.0 601.0 L 153.0 597.0 L 156.0 591.0 L 157.0 587.0 L 157.0 493.0 L 156.0 491.0 L 155.0 489.0 L 138.0 471.0 L 133.0 467.0 L 132.0 466.0 L 108.0 441.0 L 106.0 440.0 L 104.0 439.0 Z M 111.0 467.0 L 132.0 488.0 L 112.0 489.0 L 109.0 486.0 Z M 48.0 455.0 L 93.0 456.0 L 94.0 460.0 L 94.0 468.0 L 93.0 485.0 L 94.0 490.0 L 95.0 493.0 L 96.0 495.0 L 98.0 498.0 L 101.0 501.0 L 107.0 504.0 L 111.0 505.0 L 142.0 506.0 L 142.0 584.0 L 141.0 586.0 L 140.0 588.0 L 136.0 592.0 L 133.0 593.0 L 49.0 593.0 L 45.0 591.0 L 43.0 589.0 L 42.0 587.0 L 41.0 585.0 L 41.0 463.0 L 43.0 459.0 L 45.0 457.0 Z M 949.0 390.0 L 947.0 391.0 L 945.0 392.0 L 944.0 393.0 L 943.0 395.0 L 943.0 401.0 L 965.0 423.0 L 966.0 426.0 L 943.0 449.0 L 943.0 456.0 L 946.0 459.0 L 948.0 460.0 L 952.0 460.0 L 954.0 459.0 L 965.0 449.0 L 984.0 430.0 L 985.0 428.0 L 985.0 422.0 L 980.0 416.0 L 977.0 413.0 L 965.0 401.0 L 963.0 399.0 L 954.0 391.0 L 951.0 390.0 Z M 848.0 390.0 L 845.0 391.0 L 843.0 393.0 L 842.0 395.0 L 842.0 401.0 L 843.0 403.0 L 856.0 419.0 L 726.0 419.0 L 724.0 420.0 L 722.0 421.0 L 721.0 422.0 L 720.0 424.0 L 720.0 431.0 L 721.0 433.0 L 722.0 434.0 L 724.0 435.0 L 855.0 437.0 L 843.0 449.0 L 842.0 451.0 L 842.0 453.0 L 842.0 456.0 L 842.0 458.0 L 845.0 461.0 L 847.0 461.0 L 850.0 461.0 L 852.0 461.0 L 854.0 460.0 L 858.0 456.0 L 883.0 430.0 L 884.0 428.0 L 884.0 424.0 L 883.0 422.0 L 871.0 409.0 L 854.0 392.0 L 850.0 390.0 Z M 927.0 353.0 L 923.0 354.0 L 920.0 355.0 L 918.0 356.0 L 915.0 358.0 L 908.0 365.0 L 907.0 367.0 L 906.0 369.0 L 905.0 372.0 L 904.0 375.0 L 904.0 484.0 L 905.0 487.0 L 906.0 490.0 L 907.0 492.0 L 909.0 495.0 L 914.0 500.0 L 917.0 502.0 L 919.0 503.0 L 921.0 504.0 L 924.0 505.0 L 929.0 506.0 L 1049.0 506.0 L 1055.0 505.0 L 1058.0 504.0 L 1060.0 503.0 L 1062.0 502.0 L 1065.0 500.0 L 1070.0 495.0 L 1072.0 492.0 L 1073.0 490.0 L 1074.0 487.0 L 1075.0 483.0 L 1075.0 375.0 L 1074.0 371.0 L 1071.0 365.0 L 1069.0 362.0 L 1066.0 359.0 L 1063.0 357.0 L 1057.0 354.0 L 1053.0 353.0 Z M 933.0 368.0 L 935.0 368.0 L 1040.0 368.0 L 1043.0 368.0 L 1052.0 369.0 L 1054.0 370.0 L 1058.0 374.0 L 1059.0 376.0 L 1060.0 378.0 L 1060.0 481.0 L 1059.0 483.0 L 1054.0 488.0 L 1052.0 489.0 L 1049.0 490.0 L 929.0 490.0 L 927.0 489.0 L 925.0 488.0 L 920.0 483.0 L 919.0 480.0 L 919.0 379.0 L 920.0 376.0 L 922.0 373.0 L 924.0 371.0 L 926.0 370.0 L 928.0 369.0 Z M 549.0 354.0 L 547.0 354.0 L 545.0 355.0 L 544.0 357.0 L 543.0 359.0 L 542.0 364.0 L 542.0 368.0 L 541.0 372.0 L 540.0 375.0 L 539.0 378.0 L 537.0 383.0 L 535.0 387.0 L 532.0 393.0 L 529.0 398.0 L 526.0 402.0 L 522.0 407.0 L 514.0 415.0 L 509.0 419.0 L 500.0 425.0 L 494.0 428.0 L 486.0 431.0 L 479.0 432.0 L 477.0 433.0 L 475.0 435.0 L 474.0 437.0 L 474.0 442.0 L 475.0 444.0 L 476.0 445.0 L 478.0 446.0 L 481.0 447.0 L 487.0 448.0 L 493.0 450.0 L 497.0 452.0 L 503.0 455.0 L 506.0 457.0 L 510.0 460.0 L 515.0 464.0 L 523.0 472.0 L 527.0 477.0 L 529.0 480.0 L 531.0 483.0 L 534.0 488.0 L 535.0 490.0 L 536.0 492.0 L 539.0 499.0 L 540.0 502.0 L 541.0 505.0 L 542.0 509.0 L 543.0 513.0 L 543.0 518.0 L 544.0 520.0 L 546.0 522.0 L 548.0 523.0 L 553.0 523.0 L 555.0 522.0 L 557.0 520.0 L 558.0 518.0 L 558.0 513.0 L 559.0 509.0 L 563.0 497.0 L 569.0 485.0 L 572.0 480.0 L 575.0 476.0 L 579.0 471.0 L 585.0 465.0 L 591.0 460.0 L 594.0 458.0 L 597.0 456.0 L 602.0 453.0 L 609.0 450.0 L 614.0 448.0 L 617.0 447.0 L 621.0 447.0 L 624.0 446.0 L 627.0 443.0 L 628.0 440.0 L 628.0 438.0 L 627.0 436.0 L 626.0 434.0 L 625.0 433.0 L 623.0 432.0 L 619.0 432.0 L 615.0 431.0 L 610.0 429.0 L 606.0 427.0 L 600.0 424.0 L 597.0 422.0 L 594.0 420.0 L 590.0 417.0 L 577.0 404.0 L 573.0 399.0 L 571.0 396.0 L 568.0 391.0 L 564.0 383.0 L 562.0 377.0 L 559.0 368.0 L 558.0 364.0 L 558.0 359.0 L 557.0 357.0 L 554.0 354.0 L 552.0 354.0 Z M 552.0 393.0 L 553.0 396.0 L 555.0 398.0 L 557.0 403.0 L 563.0 412.0 L 568.0 418.0 L 576.0 426.0 L 582.0 431.0 L 586.0 434.0 L 592.0 437.0 L 593.0 439.0 L 590.0 442.0 L 584.0 445.0 L 579.0 449.0 L 574.0 453.0 L 570.0 457.0 L 564.0 464.0 L 561.0 468.0 L 559.0 471.0 L 557.0 474.0 L 553.0 483.0 L 552.0 485.0 L 549.0 485.0 L 549.0 483.0 L 548.0 481.0 L 547.0 479.0 L 544.0 474.0 L 542.0 471.0 L 540.0 468.0 L 537.0 464.0 L 530.0 456.0 L 528.0 454.0 L 521.0 448.0 L 517.0 445.0 L 511.0 441.0 L 510.0 441.0 L 510.0 437.0 L 511.0 437.0 L 517.0 433.0 L 521.0 430.0 L 536.0 415.0 L 540.0 410.0 L 542.0 407.0 L 548.0 397.0 Z M 226.0 293.0 L 224.0 294.0 L 221.0 297.0 L 220.0 300.0 L 220.0 302.0 L 221.0 305.0 L 224.0 308.0 L 227.0 309.0 L 308.0 309.0 L 312.0 310.0 L 315.0 311.0 L 323.0 315.0 L 326.0 317.0 L 335.0 326.0 L 337.0 329.0 L 343.0 343.0 L 344.0 345.0 L 347.0 350.0 L 349.0 353.0 L 353.0 358.0 L 358.0 363.0 L 363.0 367.0 L 366.0 369.0 L 374.0 373.0 L 383.0 376.0 L 387.0 377.0 L 392.0 378.0 L 399.0 378.0 L 400.0 376.0 L 406.0 364.0 L 406.0 362.0 L 393.0 362.0 L 388.0 361.0 L 385.0 360.0 L 380.0 358.0 L 378.0 357.0 L 373.0 354.0 L 362.0 343.0 L 360.0 340.0 L 357.0 334.0 L 351.0 321.0 L 349.0 318.0 L 346.0 314.0 L 337.0 305.0 L 334.0 303.0 L 331.0 301.0 L 323.0 297.0 L 314.0 294.0 L 308.0 293.0 Z M 505.0 227.0 L 501.0 228.0 L 493.0 232.0 L 490.0 234.0 L 487.0 237.0 L 484.0 241.0 L 482.0 245.0 L 478.0 253.0 L 464.0 281.0 L 444.0 322.0 L 427.0 359.0 L 426.0 361.0 L 424.0 363.0 L 423.0 365.0 L 422.0 367.0 L 410.0 394.0 L 409.0 396.0 L 407.0 398.0 L 406.0 400.0 L 405.0 402.0 L 402.0 409.0 L 401.0 412.0 L 400.0 415.0 L 399.0 420.0 L 399.0 435.0 L 400.0 439.0 L 401.0 443.0 L 403.0 448.0 L 410.0 464.0 L 414.0 473.0 L 420.0 484.0 L 433.0 513.0 L 436.0 522.0 L 441.0 531.0 L 444.0 540.0 L 449.0 549.0 L 452.0 558.0 L 461.0 578.0 L 467.0 589.0 L 484.0 627.0 L 497.0 656.0 L 521.0 712.0 L 522.0 714.0 L 523.0 716.0 L 526.0 720.0 L 529.0 723.0 L 532.0 725.0 L 540.0 729.0 L 544.0 730.0 L 559.0 730.0 L 563.0 729.0 L 566.0 728.0 L 572.0 725.0 L 579.0 718.0 L 581.0 715.0 L 582.0 713.0 L 583.0 711.0 L 587.0 702.0 L 596.0 682.0 L 605.0 662.0 L 612.0 644.0 L 625.0 615.0 L 635.0 595.0 L 648.0 566.0 L 661.0 537.0 L 678.0 499.0 L 701.0 447.0 L 702.0 444.0 L 703.0 440.0 L 704.0 436.0 L 704.0 419.0 L 703.0 414.0 L 702.0 411.0 L 700.0 406.0 L 693.0 394.0 L 684.0 374.0 L 660.0 327.0 L 633.0 270.0 L 628.0 260.0 L 619.0 242.0 L 617.0 239.0 L 611.0 233.0 L 608.0 231.0 L 602.0 228.0 L 598.0 227.0 Z M 509.0 244.0 L 593.0 244.0 L 597.0 245.0 L 600.0 247.0 L 604.0 251.0 L 606.0 255.0 L 610.0 263.0 L 618.0 279.0 L 639.0 321.0 L 667.0 380.0 L 669.0 382.0 L 686.0 417.0 L 687.0 421.0 L 687.0 435.0 L 686.0 438.0 L 685.0 441.0 L 682.0 448.0 L 676.0 461.0 L 664.0 486.0 L 652.0 513.0 L 649.0 522.0 L 645.0 531.0 L 631.0 560.0 L 627.0 569.0 L 620.0 587.0 L 614.0 598.0 L 612.0 605.0 L 606.0 616.0 L 598.0 636.0 L 588.0 656.0 L 585.0 665.0 L 579.0 676.0 L 574.0 687.0 L 571.0 696.0 L 567.0 705.0 L 561.0 711.0 L 559.0 712.0 L 555.0 713.0 L 548.0 713.0 L 544.0 712.0 L 541.0 710.0 L 538.0 707.0 L 536.0 703.0 L 533.0 697.0 L 530.0 688.0 L 511.0 648.0 L 502.0 628.0 L 499.0 619.0 L 480.0 579.0 L 476.0 570.0 L 473.0 561.0 L 468.0 552.0 L 465.0 543.0 L 460.0 534.0 L 457.0 525.0 L 448.0 505.0 L 435.0 476.0 L 429.0 465.0 L 420.0 445.0 L 418.0 440.0 L 417.0 437.0 L 416.0 434.0 L 415.0 430.0 L 415.0 425.0 L 416.0 420.0 L 417.0 417.0 L 422.0 406.0 L 423.0 404.0 L 425.0 402.0 L 426.0 400.0 L 442.0 365.0 L 462.0 324.0 L 467.0 316.0 L 485.0 277.0 L 497.0 253.0 L 499.0 250.0 L 501.0 248.0 L 504.0 246.0 L 506.0 245.0 Z M 78.0 216.0 L 75.0 217.0 L 69.0 220.0 L 66.0 223.0 L 65.0 223.0 L 63.0 225.0 L 63.0 226.0 L 60.0 229.0 L 59.0 231.0 L 57.0 236.0 L 56.0 241.0 L 56.0 249.0 L 57.0 253.0 L 58.0 256.0 L 59.0 258.0 L 60.0 260.0 L 63.0 264.0 L 67.0 268.0 L 70.0 270.0 L 72.0 271.0 L 74.0 272.0 L 77.0 273.0 L 80.0 274.0 L 90.0 274.0 L 94.0 273.0 L 97.0 272.0 L 99.0 270.0 L 103.0 270.0 L 106.0 272.0 L 118.0 280.0 L 131.0 289.0 L 135.0 293.0 L 134.0 300.0 L 134.0 303.0 L 134.0 310.0 L 132.0 311.0 L 128.0 313.0 L 120.0 317.0 L 94.0 330.0 L 87.0 333.0 L 85.0 333.0 L 79.0 327.0 L 73.0 324.0 L 69.0 323.0 L 65.0 323.0 L 64.0 322.0 L 61.0 322.0 L 55.0 323.0 L 52.0 324.0 L 46.0 327.0 L 38.0 335.0 L 35.0 341.0 L 34.0 344.0 L 33.0 350.0 L 33.0 353.0 L 34.0 359.0 L 35.0 362.0 L 38.0 368.0 L 45.0 375.0 L 48.0 377.0 L 50.0 378.0 L 52.0 379.0 L 55.0 380.0 L 69.0 380.0 L 72.0 379.0 L 75.0 378.0 L 80.0 375.0 L 86.0 369.0 L 88.0 366.0 L 89.0 364.0 L 90.0 362.0 L 91.0 358.0 L 91.0 350.0 L 93.0 348.0 L 95.0 347.0 L 100.0 345.0 L 126.0 332.0 L 128.0 332.0 L 144.0 324.0 L 149.0 328.0 L 151.0 329.0 L 154.0 330.0 L 157.0 331.0 L 170.0 331.0 L 173.0 330.0 L 179.0 327.0 L 187.0 319.0 L 190.0 314.0 L 191.0 311.0 L 192.0 308.0 L 192.0 295.0 L 191.0 292.0 L 188.0 286.0 L 186.0 283.0 L 181.0 278.0 L 178.0 276.0 L 176.0 275.0 L 173.0 274.0 L 170.0 273.0 L 157.0 273.0 L 153.0 274.0 L 151.0 275.0 L 147.0 278.0 L 145.0 278.0 L 143.0 277.0 L 137.0 273.0 L 116.0 259.0 L 113.0 256.0 L 113.0 252.0 L 114.0 239.0 L 113.0 235.0 L 110.0 229.0 L 108.0 226.0 L 103.0 221.0 L 98.0 218.0 L 95.0 217.0 L 92.0 216.0 Z M 59.0 338.0 L 66.0 338.0 L 68.0 339.0 L 70.0 340.0 L 73.0 343.0 L 75.0 346.0 L 76.0 349.0 L 76.0 354.0 L 75.0 357.0 L 73.0 360.0 L 71.0 362.0 L 68.0 364.0 L 65.0 365.0 L 59.0 365.0 L 57.0 364.0 L 55.0 363.0 L 51.0 359.0 L 50.0 357.0 L 49.0 355.0 L 49.0 348.0 L 50.0 346.0 L 51.0 344.0 L 55.0 340.0 L 57.0 339.0 Z M 162.0 288.0 L 165.0 288.0 L 169.0 289.0 L 175.0 295.0 L 176.0 297.0 L 177.0 299.0 L 177.0 305.0 L 176.0 307.0 L 175.0 309.0 L 170.0 314.0 L 168.0 315.0 L 165.0 316.0 L 162.0 316.0 L 158.0 315.0 L 155.0 313.0 L 153.0 311.0 L 151.0 308.0 L 150.0 306.0 L 150.0 298.0 L 151.0 296.0 L 152.0 294.0 L 155.0 291.0 L 158.0 289.0 Z M 82.0 231.0 L 88.0 231.0 L 90.0 232.0 L 92.0 233.0 L 97.0 238.0 L 98.0 240.0 L 98.0 243.0 L 99.0 244.0 L 99.0 246.0 L 98.0 247.0 L 98.0 250.0 L 96.0 253.0 L 93.0 256.0 L 91.0 257.0 L 89.0 258.0 L 81.0 258.0 L 79.0 257.0 L 73.0 251.0 L 72.0 249.0 L 72.0 241.0 L 73.0 238.0 L 78.0 233.0 L 80.0 232.0 Z M 863.0 86.0 L 861.0 87.0 L 858.0 90.0 L 857.0 92.0 L 857.0 96.0 L 858.0 98.0 L 872.0 112.0 L 871.0 115.0 L 787.0 115.0 L 782.0 116.0 L 778.0 117.0 L 775.0 118.0 L 772.0 119.0 L 760.0 125.0 L 757.0 127.0 L 753.0 130.0 L 744.0 139.0 L 738.0 148.0 L 735.0 154.0 L 733.0 159.0 L 732.0 162.0 L 731.0 165.0 L 727.0 178.0 L 724.0 191.0 L 716.0 213.0 L 710.0 235.0 L 709.0 238.0 L 708.0 241.0 L 706.0 246.0 L 703.0 253.0 L 702.0 255.0 L 701.0 257.0 L 698.0 262.0 L 694.0 267.0 L 688.0 273.0 L 684.0 276.0 L 681.0 278.0 L 673.0 282.0 L 670.0 283.0 L 666.0 284.0 L 662.0 284.0 L 661.0 285.0 L 658.0 285.0 L 659.0 288.0 L 665.0 300.0 L 670.0 300.0 L 674.0 299.0 L 677.0 298.0 L 680.0 297.0 L 692.0 291.0 L 696.0 288.0 L 700.0 285.0 L 705.0 280.0 L 709.0 275.0 L 711.0 272.0 L 713.0 269.0 L 716.0 264.0 L 717.0 262.0 L 720.0 255.0 L 722.0 250.0 L 726.0 238.0 L 732.0 219.0 L 736.0 203.0 L 743.0 181.0 L 749.0 163.0 L 753.0 155.0 L 758.0 148.0 L 765.0 141.0 L 768.0 139.0 L 771.0 137.0 L 777.0 134.0 L 780.0 133.0 L 783.0 132.0 L 788.0 131.0 L 795.0 130.0 L 872.0 132.0 L 862.0 142.0 L 858.0 147.0 L 857.0 149.0 L 857.0 152.0 L 858.0 155.0 L 860.0 157.0 L 862.0 158.0 L 867.0 158.0 L 869.0 157.0 L 898.0 128.0 L 899.0 126.0 L 900.0 124.0 L 900.0 121.0 L 899.0 118.0 L 873.0 91.0 L 870.0 88.0 L 868.0 87.0 L 866.0 86.0 Z M 247.0 85.0 L 245.0 86.0 L 243.0 87.0 L 242.0 88.0 L 241.0 90.0 L 241.0 96.0 L 242.0 98.0 L 244.0 100.0 L 246.0 101.0 L 319.0 101.0 L 325.0 102.0 L 328.0 103.0 L 331.0 104.0 L 336.0 106.0 L 338.0 107.0 L 341.0 109.0 L 344.0 111.0 L 355.0 122.0 L 357.0 125.0 L 359.0 128.0 L 363.0 136.0 L 366.0 145.0 L 370.0 158.0 L 373.0 171.0 L 382.0 197.0 L 387.0 213.0 L 389.0 223.0 L 394.0 239.0 L 395.0 242.0 L 396.0 245.0 L 398.0 250.0 L 403.0 259.0 L 405.0 262.0 L 408.0 266.0 L 419.0 277.0 L 428.0 283.0 L 436.0 287.0 L 442.0 289.0 L 444.0 287.0 L 446.0 282.0 L 448.0 277.0 L 450.0 274.0 L 448.0 274.0 L 442.0 272.0 L 436.0 269.0 L 433.0 267.0 L 430.0 265.0 L 422.0 257.0 L 419.0 253.0 L 417.0 250.0 L 415.0 246.0 L 412.0 240.0 L 410.0 235.0 L 409.0 232.0 L 409.0 229.0 L 407.0 226.0 L 406.0 223.0 L 403.0 213.0 L 396.0 187.0 L 389.0 168.0 L 384.0 148.0 L 379.0 132.0 L 377.0 128.0 L 372.0 118.0 L 370.0 115.0 L 368.0 112.0 L 355.0 99.0 L 351.0 96.0 L 346.0 93.0 L 344.0 92.0 L 342.0 91.0 L 337.0 89.0 L 334.0 88.0 L 330.0 87.0 L 326.0 86.0 L 320.0 85.0 Z M 168.0 43.0 L 166.0 44.0 L 164.0 46.0 L 163.0 48.0 L 163.0 54.0 L 179.0 71.0 L 196.0 89.0 L 192.0 94.0 L 164.0 122.0 L 163.0 124.0 L 163.0 129.0 L 164.0 131.0 L 166.0 133.0 L 168.0 134.0 L 174.0 134.0 L 214.0 94.0 L 215.0 92.0 L 215.0 86.0 L 214.0 84.0 L 194.0 64.0 L 194.0 63.0 L 175.0 44.0 L 173.0 43.0 Z M 62.0 43.0 L 28.0 77.0 L 21.0 85.0 L 20.0 88.0 L 20.0 90.0 L 21.0 93.0 L 22.0 95.0 L 24.0 97.0 L 29.0 101.0 L 60.0 133.0 L 62.0 134.0 L 68.0 134.0 L 71.0 132.0 L 72.0 130.0 L 73.0 128.0 L 73.0 125.0 L 72.0 122.0 L 40.0 90.0 L 40.0 88.0 L 50.0 77.0 L 72.0 55.0 L 73.0 53.0 L 73.0 49.0 L 71.0 45.0 L 68.0 43.0 Z M 996.0 35.0 L 993.0 38.0 L 992.0 40.0 L 991.0 50.0 L 990.0 55.0 L 987.0 64.0 L 985.0 69.0 L 981.0 77.0 L 979.0 80.0 L 977.0 83.0 L 974.0 87.0 L 963.0 98.0 L 958.0 102.0 L 955.0 104.0 L 952.0 106.0 L 948.0 108.0 L 942.0 111.0 L 937.0 113.0 L 930.0 115.0 L 926.0 115.0 L 923.0 116.0 L 920.0 119.0 L 919.0 121.0 L 919.0 123.0 L 920.0 126.0 L 922.0 128.0 L 924.0 129.0 L 934.0 130.0 L 937.0 131.0 L 940.0 132.0 L 947.0 135.0 L 954.0 139.0 L 957.0 141.0 L 961.0 144.0 L 967.0 149.0 L 969.0 151.0 L 975.0 158.0 L 981.0 167.0 L 983.0 171.0 L 986.0 177.0 L 990.0 189.0 L 991.0 193.0 L 992.0 198.0 L 992.0 203.0 L 993.0 205.0 L 995.0 207.0 L 997.0 208.0 L 1001.0 208.0 L 1003.0 207.0 L 1004.0 206.0 L 1005.0 204.0 L 1006.0 200.0 L 1006.0 195.0 L 1007.0 190.0 L 1010.0 181.0 L 1012.0 176.0 L 1016.0 168.0 L 1019.0 163.0 L 1021.0 160.0 L 1024.0 156.0 L 1034.0 146.0 L 1039.0 142.0 L 1042.0 140.0 L 1045.0 138.0 L 1049.0 136.0 L 1055.0 133.0 L 1064.0 130.0 L 1072.0 129.0 L 1076.0 127.0 L 1077.0 125.0 L 1077.0 119.0 L 1074.0 116.0 L 1071.0 115.0 L 1067.0 115.0 L 1058.0 112.0 L 1051.0 109.0 L 1049.0 108.0 L 1047.0 107.0 L 1042.0 104.0 L 1038.0 101.0 L 1033.0 97.0 L 1025.0 89.0 L 1022.0 85.0 L 1019.0 81.0 L 1017.0 78.0 L 1011.0 66.0 L 1007.0 54.0 L 1006.0 49.0 L 1005.0 44.0 L 1005.0 39.0 L 1004.0 37.0 L 1003.0 36.0 L 1001.0 35.0 Z M 997.0 79.0 L 999.0 78.0 L 1001.0 80.0 L 1005.0 88.0 L 1007.0 91.0 L 1009.0 94.0 L 1012.0 98.0 L 1025.0 111.0 L 1029.0 114.0 L 1032.0 116.0 L 1035.0 118.0 L 1038.0 119.0 L 1040.0 120.0 L 1041.0 122.0 L 1039.0 124.0 L 1036.0 126.0 L 1026.0 132.0 L 1012.0 146.0 L 1009.0 150.0 L 1007.0 153.0 L 1005.0 156.0 L 1001.0 164.0 L 997.0 165.0 L 996.0 163.0 L 994.0 158.0 L 988.0 149.0 L 983.0 143.0 L 975.0 135.0 L 970.0 131.0 L 966.0 128.0 L 961.0 125.0 L 958.0 124.0 L 958.0 120.0 L 964.0 117.0 L 967.0 115.0 L 971.0 112.0 L 979.0 105.0 L 982.0 102.0 L 987.0 96.0 L 992.0 89.0 L 996.0 82.0 L 996.0 81.0 Z M 136.0 20.0 L 132.0 22.0 L 131.0 24.0 L 130.0 26.0 L 128.0 32.0 L 119.0 61.0 L 111.0 84.0 L 104.0 104.0 L 97.0 121.0 L 89.0 144.0 L 88.0 147.0 L 88.0 153.0 L 89.0 155.0 L 91.0 157.0 L 93.0 158.0 L 98.0 158.0 L 102.0 156.0 L 104.0 153.0 L 104.0 150.0 L 107.0 144.0 L 112.0 130.0 L 119.0 107.0 L 128.0 84.0 L 137.0 58.0 L 146.0 31.0 L 146.0 26.0 L 145.0 24.0 L 142.0 21.0 L 140.0 20.0 Z" fill="currentColor" fill-rule="evenodd"/>
</svg>